<svg xmlns="http://www.w3.org/2000/svg" viewBox="0 0 48 48" width="48" height="48">
  <rect width="48" height="48" rx="6" fill="#FDF6ED"/>
  <!-- Base -->
  <rect x="14" y="40" width="20" height="5" rx="2" fill="#C9960C"/>
  <!-- Pot body -->
  <path fill="#D4AF37" d="M13,38 C10,32 9,26 10,20 C11,14 14,10 14,8 L34,8 C34,10 37,14 38,20 C39,26 38,32 35,38Z"/>
  <path fill="#9A7209" d="M28,38 C27,32 26,26 26,20 C26,15 27,11 28,8 L30,8 C29,11 28,15 28,20 C28,26 29,32 29,38Z" opacity="0.4"/>
  <!-- Decorative band -->
  <line x1="10" y1="24" x2="38" y2="24" stroke="#3D1F0D" stroke-width="1.2"/>
  <line x1="10" y1="27" x2="38" y2="27" stroke="#3D1F0D" stroke-width="0.8"/>
  <!-- Neck -->
  <path fill="#C9960C" d="M16,8 L16,5 L32,5 L32,8Z"/>
  <!-- Rim -->
  <ellipse cx="24" cy="5" rx="8" ry="2.5" fill="#D4AF37"/>
  <!-- Coconut -->
  <ellipse cx="24" cy="1" rx="5" ry="4" fill="#8B5E3C"/>
  <line x1="24" y1="4" x2="24" y2="0" stroke="#3D1F0D" stroke-width="1.5"/>
  <!-- Leaves -->
  <path fill="#3D1F0D" d="M24,4 C20,2 16,0 14,-2 C18,0 22,2 24,4Z"/>
  <path fill="#3D1F0D" d="M24,4 C28,2 32,0 34,-2 C30,0 26,2 24,4Z"/>
  <path fill="#3D1F0D" d="M24,4 C22,0 22,-3 24,-5 C26,-3 26,0 24,4Z"/>
</svg>
