<svg xmlns="http://www.w3.org/2000/svg" viewBox="0 0 120 120" width="120" height="120">
  <use href="#corner-tl-content" transform="scale(-1,1) translate(-120,0)"/>
  <defs>
    <style>.ornament { fill: none; stroke: #3D1F0D; stroke-linecap: round; stroke-linejoin: round; }</style>
  </defs>
  <!-- Main corner L-frame (mirrored) -->
  <path class="ornament" stroke-width="2.5" d="M112,8 L112,112 M112,8 L8,8"/>
  <path class="ornament" stroke-width="1" d="M108,12 L108,108 M108,12 L12,12"/>
  <!-- Top-right lotus bloom -->
  <g transform="translate(112,8)">
    <path fill="#3D1F0D" d="M0,0 C-8,0 -14,6 -14,14 C-14,6 -20,0 -28,0 C-20,0 -14,-6 -14,-6 C-14,-6 -8,0 0,0Z" opacity="0.9"/>
    <path fill="#3D1F0D" d="M0,0 C0,8 -6,14 -14,14 C-6,14 0,20 0,28 C0,20 6,14 6,14 C6,14 0,8 0,0Z" opacity="0.9"/>
    <circle fill="#3D1F0D" cx="-14" cy="14" r="4"/>
    <circle fill="#C9960C" cx="-14" cy="14" r="2.5"/>
    <path fill="#3D1F0D" d="M-14,10 C-16,11 -17,13 -16,15 C-17,13 -19,12 -21,14 C-19,12 -19,9 -17,8 C-16,7 -14,7 -14,10Z" opacity="0.8"/>
    <path fill="#3D1F0D" d="M-10,14 C-11,16 -13,17 -15,16 C-13,17 -12,19 -14,21 C-12,19 -9,19 -8,17 C-7,16 -7,14 -10,14Z" opacity="0.8"/>
  </g>
  <!-- Scroll vine going left along top -->
  <path class="ornament" stroke-width="1.8" d="M98,8 C90,8 84,4 78,8 C72,12 68,6 62,8 C56,10 52,5 46,8 C40,11 36,6 30,8 C24,10 20,7 14,8"/>
  <ellipse fill="#3D1F0D" cx="85" cy="6" rx="5" ry="3" transform="rotate(20,85,6)"/>
  <ellipse fill="#3D1F0D" cx="63" cy="6" rx="5" ry="3" transform="rotate(-15,63,6)"/>
  <ellipse fill="#3D1F0D" cx="41" cy="6" rx="5" ry="3" transform="rotate(10,41,6)"/>
  <ellipse fill="#3D1F0D" cx="20" cy="7" rx="4" ry="2.5" transform="rotate(-20,20,7)"/>
  <!-- Scroll vine going down along right -->
  <path class="ornament" stroke-width="1.8" d="M112,22 C112,30 116,36 112,42 C108,48 114,52 112,58 C110,64 115,68 112,74 C109,80 114,84 112,90 C110,96 113,100 112,106"/>
  <ellipse fill="#3D1F0D" cx="114" cy="35" rx="3" ry="5" transform="rotate(-20,114,35)"/>
  <ellipse fill="#3D1F0D" cx="114" cy="57" rx="3" ry="5" transform="rotate(15,114,57)"/>
  <ellipse fill="#3D1F0D" cx="114" cy="79" rx="3" ry="5" transform="rotate(-10,114,79)"/>
  <ellipse fill="#3D1F0D" cx="113" cy="100" rx="2.5" ry="4" transform="rotate(20,113,100)"/>
  <!-- Small decorative curls -->
  <path class="ornament" stroke-width="1.2" d="M100,18 C96,14 90,16 92,22"/>
  <path class="ornament" stroke-width="1.2" d="M102,20 C106,24 104,30 98,28"/>
  <path fill="none" stroke="#C9960C" stroke-width="1" d="M102,18 L102,40 M102,18 L80,18"/>
</svg>
