<svg xmlns="http://www.w3.org/2000/svg" viewBox="0 0 600 600" width="600" height="600">
  <defs>
    <style>
      .m { fill: none; stroke: #C9960C; stroke-opacity: 0.08; }
      .mf { fill: #C9960C; fill-opacity: 0.05; stroke: none; }
    </style>
  </defs>

  <g transform="translate(300,300)">
    <!-- Outermost ring of petals -->
    <g>
      <path class="mf" d="M0,-280 C20,-260 20,-240 0,-220 C-20,-240 -20,-260 0,-280Z" transform="rotate(0)"/>
      <path class="mf" d="M0,-280 C20,-260 20,-240 0,-220 C-20,-240 -20,-260 0,-280Z" transform="rotate(30)"/>
      <path class="mf" d="M0,-280 C20,-260 20,-240 0,-220 C-20,-240 -20,-260 0,-280Z" transform="rotate(60)"/>
      <path class="mf" d="M0,-280 C20,-260 20,-240 0,-220 C-20,-240 -20,-260 0,-280Z" transform="rotate(90)"/>
      <path class="mf" d="M0,-280 C20,-260 20,-240 0,-220 C-20,-240 -20,-260 0,-280Z" transform="rotate(120)"/>
      <path class="mf" d="M0,-280 C20,-260 20,-240 0,-220 C-20,-240 -20,-260 0,-280Z" transform="rotate(150)"/>
      <path class="mf" d="M0,-280 C20,-260 20,-240 0,-220 C-20,-240 -20,-260 0,-280Z" transform="rotate(180)"/>
      <path class="mf" d="M0,-280 C20,-260 20,-240 0,-220 C-20,-240 -20,-260 0,-280Z" transform="rotate(210)"/>
      <path class="mf" d="M0,-280 C20,-260 20,-240 0,-220 C-20,-240 -20,-260 0,-280Z" transform="rotate(240)"/>
      <path class="mf" d="M0,-280 C20,-260 20,-240 0,-220 C-20,-240 -20,-260 0,-280Z" transform="rotate(270)"/>
      <path class="mf" d="M0,-280 C20,-260 20,-240 0,-220 C-20,-240 -20,-260 0,-280Z" transform="rotate(300)"/>
      <path class="mf" d="M0,-280 C20,-260 20,-240 0,-220 C-20,-240 -20,-260 0,-280Z" transform="rotate(330)"/>
    </g>

    <!-- Circles -->
    <circle class="m" stroke-width="1.5" r="270"/>
    <circle class="m" stroke-width="1" r="240"/>
    <circle class="m" stroke-width="1.5" r="210"/>
    <circle class="m" stroke-width="1" r="180"/>
    <circle class="m" stroke-width="1.5" r="150"/>
    <circle class="m" stroke-width="1" r="120"/>
    <circle class="m" stroke-width="1.5" r="90"/>
    <circle class="m" stroke-width="1" r="60"/>
    <circle class="m" stroke-width="1.5" r="30"/>

    <!-- Spokes (12 directions) -->
    <line class="m" stroke-width="0.8" x1="0" y1="-270" x2="0" y2="270"/>
    <line class="m" stroke-width="0.8" x1="-270" y1="0" x2="270" y2="0"/>
    <line class="m" stroke-width="0.8" x1="-191" y1="-191" x2="191" y2="191"/>
    <line class="m" stroke-width="0.8" x1="191" y1="-191" x2="-191" y2="191"/>
    <line class="m" stroke-width="0.5" x1="-70" y1="-262" x2="70" y2="262"/>
    <line class="m" stroke-width="0.5" x1="70" y1="-262" x2="-70" y2="262"/>
    <line class="m" stroke-width="0.5" x1="-262" y1="-70" x2="262" y2="70"/>
    <line class="m" stroke-width="0.5" x1="-262" y1="70" x2="262" y2="-70"/>
    <line class="m" stroke-width="0.5" x1="-135" y1="-234" x2="135" y2="234"/>
    <line class="m" stroke-width="0.5" x1="135" y1="-234" x2="-135" y2="234"/>
    <line class="m" stroke-width="0.5" x1="-234" y1="-135" x2="234" y2="135"/>
    <line class="m" stroke-width="0.5" x1="-234" y1="135" x2="234" y2="-135"/>

    <!-- Petal rings at various radii -->
    <!-- Ring at r=210 -->
    <g>
      <path class="mf" d="M0,-210 C15,-195 15,-180 0,-165 C-15,-180 -15,-195 0,-210Z" transform="rotate(0)"/>
      <path class="mf" d="M0,-210 C15,-195 15,-180 0,-165 C-15,-180 -15,-195 0,-210Z" transform="rotate(22.5)"/>
      <path class="mf" d="M0,-210 C15,-195 15,-180 0,-165 C-15,-180 -15,-195 0,-210Z" transform="rotate(45)"/>
      <path class="mf" d="M0,-210 C15,-195 15,-180 0,-165 C-15,-180 -15,-195 0,-210Z" transform="rotate(67.5)"/>
      <path class="mf" d="M0,-210 C15,-195 15,-180 0,-165 C-15,-180 -15,-195 0,-210Z" transform="rotate(90)"/>
      <path class="mf" d="M0,-210 C15,-195 15,-180 0,-165 C-15,-180 -15,-195 0,-210Z" transform="rotate(112.5)"/>
      <path class="mf" d="M0,-210 C15,-195 15,-180 0,-165 C-15,-180 -15,-195 0,-210Z" transform="rotate(135)"/>
      <path class="mf" d="M0,-210 C15,-195 15,-180 0,-165 C-15,-180 -15,-195 0,-210Z" transform="rotate(157.5)"/>
      <path class="mf" d="M0,-210 C15,-195 15,-180 0,-165 C-15,-180 -15,-195 0,-210Z" transform="rotate(180)"/>
      <path class="mf" d="M0,-210 C15,-195 15,-180 0,-165 C-15,-180 -15,-195 0,-210Z" transform="rotate(202.5)"/>
      <path class="mf" d="M0,-210 C15,-195 15,-180 0,-165 C-15,-180 -15,-195 0,-210Z" transform="rotate(225)"/>
      <path class="mf" d="M0,-210 C15,-195 15,-180 0,-165 C-15,-180 -15,-195 0,-210Z" transform="rotate(247.5)"/>
      <path class="mf" d="M0,-210 C15,-195 15,-180 0,-165 C-15,-180 -15,-195 0,-210Z" transform="rotate(270)"/>
      <path class="mf" d="M0,-210 C15,-195 15,-180 0,-165 C-15,-180 -15,-195 0,-210Z" transform="rotate(292.5)"/>
      <path class="mf" d="M0,-210 C15,-195 15,-180 0,-165 C-15,-180 -15,-195 0,-210Z" transform="rotate(315)"/>
      <path class="mf" d="M0,-210 C15,-195 15,-180 0,-165 C-15,-180 -15,-195 0,-210Z" transform="rotate(337.5)"/>
    </g>

    <!-- Ring at r=150 -->
    <g>
      <path class="mf" d="M0,-150 C12,-138 12,-126 0,-114 C-12,-126 -12,-138 0,-150Z" transform="rotate(0)"/>
      <path class="mf" d="M0,-150 C12,-138 12,-126 0,-114 C-12,-126 -12,-138 0,-150Z" transform="rotate(30)"/>
      <path class="mf" d="M0,-150 C12,-138 12,-126 0,-114 C-12,-126 -12,-138 0,-150Z" transform="rotate(60)"/>
      <path class="mf" d="M0,-150 C12,-138 12,-126 0,-114 C-12,-126 -12,-138 0,-150Z" transform="rotate(90)"/>
      <path class="mf" d="M0,-150 C12,-138 12,-126 0,-114 C-12,-126 -12,-138 0,-150Z" transform="rotate(120)"/>
      <path class="mf" d="M0,-150 C12,-138 12,-126 0,-114 C-12,-126 -12,-138 0,-150Z" transform="rotate(150)"/>
      <path class="mf" d="M0,-150 C12,-138 12,-126 0,-114 C-12,-126 -12,-138 0,-150Z" transform="rotate(180)"/>
      <path class="mf" d="M0,-150 C12,-138 12,-126 0,-114 C-12,-126 -12,-138 0,-150Z" transform="rotate(210)"/>
      <path class="mf" d="M0,-150 C12,-138 12,-126 0,-114 C-12,-126 -12,-138 0,-150Z" transform="rotate(240)"/>
      <path class="mf" d="M0,-150 C12,-138 12,-126 0,-114 C-12,-126 -12,-138 0,-150Z" transform="rotate(270)"/>
      <path class="mf" d="M0,-150 C12,-138 12,-126 0,-114 C-12,-126 -12,-138 0,-150Z" transform="rotate(300)"/>
      <path class="mf" d="M0,-150 C12,-138 12,-126 0,-114 C-12,-126 -12,-138 0,-150Z" transform="rotate(330)"/>
    </g>

    <!-- Ring at r=90 -->
    <g>
      <path class="mf" d="M0,-90 C8,-80 8,-72 0,-62 C-8,-72 -8,-80 0,-90Z" transform="rotate(0)"/>
      <path class="mf" d="M0,-90 C8,-80 8,-72 0,-62 C-8,-72 -8,-80 0,-90Z" transform="rotate(30)"/>
      <path class="mf" d="M0,-90 C8,-80 8,-72 0,-62 C-8,-72 -8,-80 0,-90Z" transform="rotate(60)"/>
      <path class="mf" d="M0,-90 C8,-80 8,-72 0,-62 C-8,-72 -8,-80 0,-90Z" transform="rotate(90)"/>
      <path class="mf" d="M0,-90 C8,-80 8,-72 0,-62 C-8,-72 -8,-80 0,-90Z" transform="rotate(120)"/>
      <path class="mf" d="M0,-90 C8,-80 8,-72 0,-62 C-8,-72 -8,-80 0,-90Z" transform="rotate(150)"/>
      <path class="mf" d="M0,-90 C8,-80 8,-72 0,-62 C-8,-72 -8,-80 0,-90Z" transform="rotate(180)"/>
      <path class="mf" d="M0,-90 C8,-80 8,-72 0,-62 C-8,-72 -8,-80 0,-90Z" transform="rotate(210)"/>
      <path class="mf" d="M0,-90 C8,-80 8,-72 0,-62 C-8,-72 -8,-80 0,-90Z" transform="rotate(240)"/>
      <path class="mf" d="M0,-90 C8,-80 8,-72 0,-62 C-8,-72 -8,-80 0,-90Z" transform="rotate(270)"/>
      <path class="mf" d="M0,-90 C8,-80 8,-72 0,-62 C-8,-72 -8,-80 0,-90Z" transform="rotate(300)"/>
      <path class="mf" d="M0,-90 C8,-80 8,-72 0,-62 C-8,-72 -8,-80 0,-90Z" transform="rotate(330)"/>
    </g>

    <!-- Center lotus -->
    <g>
      <path class="mf" d="M0,-28 C8,-20 8,-12 0,-4 C-8,-12 -8,-20 0,-28Z" transform="rotate(0)"/>
      <path class="mf" d="M0,-28 C8,-20 8,-12 0,-4 C-8,-12 -8,-20 0,-28Z" transform="rotate(45)"/>
      <path class="mf" d="M0,-28 C8,-20 8,-12 0,-4 C-8,-12 -8,-20 0,-28Z" transform="rotate(90)"/>
      <path class="mf" d="M0,-28 C8,-20 8,-12 0,-4 C-8,-12 -8,-20 0,-28Z" transform="rotate(135)"/>
      <path class="mf" d="M0,-28 C8,-20 8,-12 0,-4 C-8,-12 -8,-20 0,-28Z" transform="rotate(180)"/>
      <path class="mf" d="M0,-28 C8,-20 8,-12 0,-4 C-8,-12 -8,-20 0,-28Z" transform="rotate(225)"/>
      <path class="mf" d="M0,-28 C8,-20 8,-12 0,-4 C-8,-12 -8,-20 0,-28Z" transform="rotate(270)"/>
      <path class="mf" d="M0,-28 C8,-20 8,-12 0,-4 C-8,-12 -8,-20 0,-28Z" transform="rotate(315)"/>
    </g>
    <circle class="m" stroke-width="1.5" r="8"/>
    <circle fill="#C9960C" fill-opacity="0.06" r="5"/>
  </g>
</svg>
